<?xml version="1.0" encoding="UTF-8"?>
<svg id="Artwork" xmlns="http://www.w3.org/2000/svg" version="1.1" viewBox="0 0 2080.8 1126.8">
  <!-- Generator: Adobe Illustrator 30.1.0, SVG Export Plug-In . SVG Version: 2.1.1 Build 136)  -->
  <defs>
    <style>
      .st0 {
        fill: #fff;
      }

      .st1 {
        fill: #6b6b6b;
      }

      .st2 {
        fill: #a50034;
      }
    </style>
  </defs>
  <path class="st2" d="M563.4,939c207.5,0,375.6-168.3,375.6-375.6s-168.1-375.5-375.6-375.5-375.6,168.1-375.6,375.5,168.2,375.6,375.6,375.6"/>
  <polygon class="st0" points="548.5 398.5 548.5 727.7 653.1 727.7 653.1 698.4 578.4 698.4 578.4 398.5 548.5 398.5"/>
  <path class="st0" d="M443.5,488.4c24.9,0,45.1-20.2,45.1-45s-20.2-45.1-45.1-45.1-45,20.2-45,45.1,20.2,45,45,45"/>
  <path class="st0" d="M578.4,249.1c-3.8-.2-11.3-.3-14.9-.3-173.3,0-314.3,141.1-314.3,314.4s32.6,162.9,91.9,222.2c59.6,59.4,138.6,92.1,222.4,92.1s162.9-32.7,222.4-92.1c59.2-59.4,91.8-138.2,91.8-222.2v-14.4h-12.5c0,0-211.8,0-211.8,0v29.2h194.5v4.2c-10,148.3-133.7,265.8-284.5,265.8s-147.6-29.6-201.5-83.4c-53.9-53.8-83.5-125.4-83.5-201.5s29.6-147.7,83.5-201.5c53.8-53.9,125.4-83.5,201.5-83.5s11.5,0,14.9.2v-29.3Z"/>
  <polygon class="st1" points="1219.1 318.5 1106.9 318.5 1106.9 804.1 1451.5 804.1 1451.5 709.6 1219.1 709.6 1219.1 318.5"/>
  <path class="st1" d="M1698.3,619h91.3v84.9c-16.8,6.4-49.6,12.9-80.8,12.9-101,0-134.7-51.3-134.7-155.5s32-157.9,133-157.9,88.2,17.6,114.6,51.3l69.8-64.1c-42.5-60.9-117.1-79.4-186.8-79.4-157.1,0-239.6,85.7-239.6,249.2s74.5,250.8,238.8,250.8,149-19.2,189.1-47.3v-235.6h-194.7v90.6Z"/>
</svg>