<?xml version="1.0" encoding="UTF-8"?>
<svg id="Camada_1" data-name="Camada 1" xmlns="http://www.w3.org/2000/svg" viewBox="0 0 307 157.29">
  <defs>
    <style>
      .cls-1 {
        fill: #21c25e;
      }

      .cls-2 {
        fill: none;
        stroke: #000;
        stroke-miterlimit: 10;
      }
    </style>
  </defs>
  <path class="cls-1" d="M78.35,92.53h12.01v-35.03h-12.01v35.03ZM94.52,33.67h-8.09v8.09h8.09v-8.09ZM49.12,37.6h-11.61v10.16h10.78c6.84,0,10.78,3.32,10.78,9.53s-3.94,9.74-10.78,9.74h-10.78v-19.06h-12.01v44.55h12.01v-15.34h11.4c13.89,0,21.97-7.46,21.97-20.31,0-12.02-7.88-19.28-21.77-19.28h0ZM102.6,25.59h-24.25v24.24h24.25v-24.24ZM98.66,45.7h-16.17v-16.18h16.17v16.18ZM169.14,37.6h-10.99v10.16h10.36c6.84,0,10.78,3.32,10.78,9.53s-3.94,9.74-10.78,9.74h-10.36v-19.06h-12.01v44.55h12.01v-15.34h10.99c13.89,0,21.97-7.46,21.97-20.31,0-12.02-8.08-19.28-21.97-19.28ZM270.08,50.46l-10.36,26.11-10.36-26.11h-12.43l16.58,42.07-6.43,15.96h12.64l22.8-58.03h-12.43ZM216.19,50.25c-7.26,0-12.85,1.66-19.07,4.77l3.73,8.29c4.35-2.49,8.7-3.73,12.64-3.73,5.8,0,8.71,2.49,8.71,7.05v.83h-11.62c-10.36,0-15.96,4.77-15.96,12.64s5.39,13.05,14.51,13.05c5.8,0,9.95-2.07,13.27-5.59v4.56h11.82v-27.36c-.39-8.91-6.83-14.51-18.02-14.51ZM223.24,78.44c-1.24,3.52-4.77,6.43-9.74,6.43-4.14,0-6.63-2.07-6.63-5.39s2.28-4.77,6.84-4.77h9.53v3.73ZM121.05,83.41c-5.8,0-9.95-4.56-9.95-11.4s4.14-11.19,9.95-11.19c4.15,0,7.26,1.66,9.54,4.56l8.09-5.8c-3.73-5.6-10.16-8.91-18.24-8.91-12.64-.21-21.35,8.5-21.35,21.35s8.7,21.35,21.35,21.35c8.71,0,15.14-3.52,18.66-9.33l-8.29-5.59c-2.08,3.32-5.4,4.97-9.75,4.97h0Z"/>
  <g>
    <path d="M209.35,127.47v8.73h-1.02l-4.76-6.85h-.08v6.85h-1.06v-8.73h1.02l4.77,6.87h.09v-6.87h1.04Z"/>
    <path d="M211.82,136.2h-1.11l3.21-8.73h1.09l3.2,8.73h-1.11l-2.61-7.35h-.07l-2.61,7.35ZM212.23,132.79h4.47v.94h-4.47v-.94Z"/>
    <path d="M224.35,129.65c-.05-.43-.26-.77-.62-1-.36-.24-.81-.36-1.34-.36-.39,0-.72.06-1.01.19s-.51.3-.67.52c-.16.22-.24.47-.24.75,0,.23.06.43.17.6s.26.3.43.41c.18.11.36.2.55.27.19.07.37.13.53.17l.89.24c.23.06.48.14.76.25.28.1.55.25.8.43.26.18.47.41.64.69.17.28.25.63.25,1.04,0,.47-.12.9-.37,1.28-.25.38-.6.68-1.07.91-.47.22-1.04.34-1.71.34-.62,0-1.17-.1-1.62-.3-.46-.2-.81-.48-1.07-.84-.26-.36-.41-.78-.44-1.26h1.09c.03.33.14.6.33.82.19.21.44.37.74.48.3.1.62.16.97.16.4,0,.77-.07,1.09-.2.32-.13.58-.32.76-.55.19-.24.28-.51.28-.83,0-.29-.08-.53-.24-.71s-.38-.33-.64-.44c-.26-.11-.55-.21-.86-.3l-1.07-.31c-.68-.2-1.22-.48-1.62-.84-.4-.36-.6-.84-.6-1.43,0-.49.13-.92.4-1.28s.62-.65,1.07-.85.95-.3,1.51-.3,1.06.1,1.5.3.79.47,1.04.82.39.74.41,1.18h-1.02Z"/>
    <path d="M229.92,136.2h-2.69v-8.73h2.81c.85,0,1.57.17,2.17.52s1.06.85,1.38,1.5c.32.65.48,1.43.48,2.33s-.16,1.69-.49,2.35c-.32.66-.8,1.16-1.42,1.51s-1.37.53-2.26.53ZM228.29,135.26h1.57c.72,0,1.32-.14,1.79-.42.47-.28.83-.67,1.06-1.19.23-.51.35-1.13.35-1.84s-.12-1.31-.35-1.82c-.23-.51-.57-.9-1.03-1.18-.46-.27-1.03-.41-1.71-.41h-1.69v6.85Z"/>
    <path d="M236.21,136.2h-1.11l3.21-8.73h1.09l3.2,8.73h-1.11l-2.61-7.35h-.07l-2.61,7.35ZM236.62,132.79h4.47v.94h-4.47v-.94Z"/>
    <path d="M251.33,131.83c0,.92-.17,1.72-.5,2.39-.33.67-.79,1.19-1.37,1.55-.58.36-1.24.54-1.99.54s-1.41-.18-1.99-.54c-.58-.36-1.04-.88-1.37-1.55-.33-.67-.5-1.47-.5-2.39s.17-1.72.5-2.39c.33-.67.79-1.19,1.37-1.55.58-.36,1.24-.55,1.99-.55s1.41.18,1.99.55c.58.36,1.04.88,1.37,1.55.33.67.5,1.47.5,2.39ZM250.31,131.83c0-.76-.13-1.39-.38-1.91-.25-.52-.59-.91-1.02-1.18-.43-.27-.91-.4-1.43-.4s-1.01.13-1.43.4c-.43.27-.77.66-1.02,1.18-.25.52-.38,1.16-.38,1.91s.13,1.39.38,1.91c.25.52.59.91,1.02,1.18.43.27.91.4,1.43.4s1.01-.13,1.43-.4c.43-.27.77-.66,1.02-1.18.25-.52.38-1.16.38-1.91ZM247.14,133.47h1.16l.97,1.28.26.34,1.45,1.93h-1.16l-.96-1.28-.24-.32-1.48-1.94Z"/>
    <path d="M253.7,130.67c-.21,0-.39-.08-.54-.23s-.23-.33-.23-.54.08-.39.23-.54c.15-.15.33-.23.54-.23s.39.08.54.23c.15.15.23.33.23.54,0,.14-.04.27-.1.38-.07.12-.16.21-.28.28s-.24.1-.39.1ZM253.7,135.08c-.21,0-.39-.08-.54-.23-.15-.15-.23-.33-.23-.54s.08-.39.23-.54.33-.23.54-.23.39.08.54.23c.15.15.23.33.23.54,0,.14-.04.27-.1.38s-.16.21-.28.28-.24.1-.39.1Z"/>
    <path d="M259.79,136.2v-8.73h2.95c.68,0,1.25.12,1.68.37.44.25.76.58.97,1,.21.42.32.88.32,1.4s-.1.98-.31,1.4c-.21.42-.53.75-.96,1-.43.25-.99.37-1.67.37h-2.11v-.94h2.08c.47,0,.84-.08,1.13-.24s.49-.38.62-.66c.13-.28.19-.59.19-.94s-.06-.66-.19-.94c-.13-.28-.34-.49-.62-.65-.29-.16-.67-.24-1.14-.24h-1.86v7.79h-1.06Z"/>
    <path d="M268.46,127.47v8.73h-1.06v-8.73h1.06Z"/>
    <path d="M277.6,130.2h-1.06c-.06-.3-.17-.57-.33-.8-.15-.23-.34-.42-.56-.58-.22-.16-.46-.28-.73-.36-.27-.08-.55-.12-.83-.12-.53,0-1.01.13-1.43.4-.43.27-.77.66-1.02,1.18-.25.52-.38,1.16-.38,1.91s.13,1.39.38,1.91c.25.52.59.91,1.02,1.18.43.27.91.4,1.43.4.29,0,.57-.04.83-.12.27-.08.51-.2.73-.36.22-.16.41-.35.56-.58.16-.23.26-.5.33-.8h1.06c-.08.45-.22.85-.43,1.2-.21.35-.47.65-.78.9s-.66.43-1.05.56c-.39.13-.8.19-1.24.19-.75,0-1.41-.18-1.99-.54-.58-.36-1.04-.88-1.37-1.55-.33-.67-.5-1.47-.5-2.39s.17-1.72.5-2.39c.33-.67.79-1.19,1.37-1.55.58-.36,1.24-.55,1.99-.55.44,0,.85.06,1.24.19.39.13.74.32,1.05.56.31.25.57.54.78.9.21.35.36.75.43,1.2Z"/>
    <path d="M284.08,129.65c-.05-.43-.26-.77-.62-1-.36-.24-.81-.36-1.34-.36-.39,0-.72.06-1.01.19s-.51.3-.67.52c-.16.22-.24.47-.24.75,0,.23.06.43.17.6s.26.3.43.41c.18.11.36.2.55.27.19.07.37.13.53.17l.89.24c.23.06.48.14.76.25.28.1.55.25.8.43.26.18.47.41.64.69.17.28.25.63.25,1.04,0,.47-.12.9-.37,1.28-.25.38-.6.68-1.07.91-.47.22-1.04.34-1.71.34-.62,0-1.17-.1-1.62-.3-.46-.2-.81-.48-1.07-.84-.26-.36-.41-.78-.44-1.26h1.09c.03.33.14.6.33.82.19.21.44.37.74.48.3.1.62.16.97.16.4,0,.77-.07,1.09-.2.32-.13.58-.32.76-.55.19-.24.28-.51.28-.83,0-.29-.08-.53-.24-.71s-.38-.33-.64-.44c-.26-.11-.55-.21-.86-.3l-1.07-.31c-.68-.2-1.22-.48-1.62-.84-.4-.36-.6-.84-.6-1.43,0-.49.13-.92.4-1.28s.62-.65,1.07-.85.95-.3,1.51-.3,1.06.1,1.5.3.79.47,1.04.82.39.74.41,1.18h-1.02Z"/>
  </g>
  <rect class="cls-2" x="198.42" y="124.03" width="89.5" height="15.4" rx="1.57" ry="1.57"/>
</svg>