<?xml version="1.0" encoding="utf-8"?>
<!-- Generator: Adobe Illustrator 30.1.0, SVG Export Plug-In . SVG Version: 9.03 Build 0)  -->
<svg version="1.0" id="katman_1" xmlns="http://www.w3.org/2000/svg" xmlns:xlink="http://www.w3.org/1999/xlink" x="0px" y="0px"
	 viewBox="0 0 767.5 302.7" style="enable-background:new 0 0 767.5 302.7;" xml:space="preserve">
<style type="text/css">
	.st0{fill-rule:evenodd;clip-rule:evenodd;fill:#00A868;}
</style>
<g>
	<path class="st0" d="M671.1,138.5l-54.9-54.9c-2-2-3.2-4.8-3.2-7.6c0-2.9,1.1-5.6,3.2-7.6l0,0l54.9-54.9c0.4-0.4,1-0.8,1.5-1
		c0.6-0.2,1.2-0.4,1.8-0.4s1.2,0.1,1.8,0.4c0.6,0.2,1.1,0.6,1.5,1c0.9,0.9,1.4,2.1,1.4,3.3v118.3c0,1.3-0.5,2.5-1.4,3.4
		s-2.1,1.4-3.4,1.4c-0.6,0-1.2-0.1-1.8-0.4C672,139.3,671.5,139,671.1,138.5L671.1,138.5z M695.8,12c16.2,1.1,31.3,8.3,42.4,20.2
		c11.1,11.9,17.2,27.5,17.2,43.7s-6.1,31.8-17.2,43.7c-11.1,11.9-26.2,19.1-42.4,20.2c-0.6,0.1-1.2,0-1.8-0.2s-1.1-0.5-1.6-0.9
		s-0.9-0.9-1.1-1.4s-0.4-1.2-0.5-1.8v-26c0-1.1,0.4-2.2,1.1-3.1c0.7-0.9,1.7-1.4,2.9-1.6c7-1,13.3-4.4,18-9.7
		C717.4,89.8,720,83,720,76s-2.5-13.8-7.2-19.1c-4.6-5.3-11-8.8-18-9.7c-1.1-0.2-2.1-0.7-2.9-1.6c-0.7-0.9-1.1-2-1.1-3.1V16.9
		c0-1.2,0.5-2.4,1.4-3.3c0.9-0.9,2-1.4,3.3-1.4h0.3V12z M13.2,260.5c0-1.7,0.3-3.5,0.9-5.1c0.6-1.6,1.6-3.1,2.8-4.3
		c1.2-1.2,2.7-2.2,4.3-2.9c1.6-0.7,3.3-1.1,5.1-1.1l0,0c2.5,0,4.9,0.7,7.1,1.9c12.2,8.7,26.7,13.5,41.7,13.9
		c14.1,0,22.3-6.2,22.3-15.5V247c0-11.1-15.2-14.9-32.1-20c-21.2-6.2-44.8-14.6-44.8-42v-0.6c0-27.1,22.5-43.3,51.1-43.3
		c15.7,0.2,31.2,4.2,45.1,11.6c2.3,1.1,4.3,2.9,5.7,5.1s2.2,4.7,2.2,7.3c0,3.5-1.4,6.9-3.9,9.4s-5.8,3.9-9.3,3.9H111
		c-2.3,0.1-4.6-0.5-6.6-1.6c-10.3-6-21.9-9.5-33.8-10.2c-12.7,0-20.2,6.2-20.2,14.2v0.6c0,10.6,15.5,14.9,32.3,20.3
		c21,6.6,44.6,16,44.6,41.7v0.6c0,30.1-23.4,45-53.3,45c-19.5-0.2-38.5-6.1-54.6-17.1c-2-1.1-3.6-2.8-4.7-4.8
		C13.6,265,13,262.7,13.2,260.5L13.2,260.5z M217.3,214.9c0-9.8,2-19.6,5.8-28.7s9.3-17.3,16.3-24.3s15.2-12.5,24.3-16.2
		c9.1-3.8,18.9-5.7,28.7-5.7h1.6c19.7-0.6,38.8,6.7,53.1,20.2c14.3,13.5,22.7,32.2,23.2,51.8c0,0.7,0,1.5,0,2.2v0.5
		c-0.1,19.9-8.1,38.9-22.2,52.9c-14.1,14-33.2,21.8-53,21.7h-1.7c-19.6,0.5-38.7-6.8-52.9-20.3c-14.3-13.5-22.6-32.1-23.2-51.7
		L217.3,214.9L217.3,214.9z M337.4,214.9c0.2-5.8-0.7-11.6-2.7-17.1s-5.1-10.5-9-14.7c-3.9-4.3-8.7-7.7-14-10.2
		c-5.3-2.4-11-3.8-16.8-4h-1.6c-26.4,0-43.3,20.6-43.3,45.5v0.6c-0.4,11.7,3.8,23.1,11.8,31.7s19,13.6,30.7,14.1h1.2
		c26.7,0,43.3-20.6,43.3-45.3L337.4,214.9z M416.2,271.1c0,4.4-1.7,8.5-4.8,11.6s-7.3,4.8-11.6,4.8c-4.4,0-8.5-1.7-11.6-4.8
		s-4.8-7.3-4.8-11.6l0,0v-66.5c0.5-16.7,7.5-32.6,19.6-44.3c12-11.7,28.1-18.2,44.9-18.2c16.7,0,32.8,6.5,44.9,18.2
		c12,11.7,19,27.5,19.6,44.3v66.6c-0.3,4.2-2.1,8.1-5.1,11c-3.1,2.9-7.1,4.5-11.3,4.5s-8.2-1.6-11.3-4.5s-4.9-6.8-5.1-11v-69.8
		c0-4.1-0.8-8.2-2.4-12c-1.6-3.8-3.9-7.3-6.8-10.2c-2.9-2.9-6.4-5.2-10.2-6.8c-3.8-1.6-7.9-2.4-12-2.4c-1.2-0.1-2.4-0.1-3.6,0
		c-7.8,1-14.9,4.8-20.1,10.7c-5.2,5.9-8,13.5-7.9,21.3v69.1H416.2z M202.9,172.8h-25.2v65.4c0,5.5,2.2,10.7,6,14.6s9.1,6.1,14.5,6.1
		h4.5c2.1-0.2,4.2,0.1,6.1,0.8c2,0.7,3.8,1.7,5.3,3.1s2.8,3.1,3.6,5c0.9,1.9,1.3,4,1.4,6c0,2.1-0.4,4.2-1.1,6.1
		c-0.8,1.9-2,3.7-3.5,5.1c-1.5,1.5-3.3,2.6-5.2,3.3c-1.9,0.7-4,1.1-6.1,1h-7c-0.8,0.1-1.5,0.1-2.3,0c-12.9-0.6-25.1-6-34.2-15.2
		s-14.4-21.4-14.9-34.3v-121c0.3-4.2,2.1-8.1,5.1-11c3.1-2.9,7.1-4.5,11.3-4.5c4.2,0,8.2,1.6,11.3,4.5c3.1,2.9,4.9,6.8,5.1,11V143
		h25.3c3.8,0.2,7.4,1.9,10,4.7c2.6,2.8,4,6.4,4,10.2s-1.4,7.5-4,10.2C210.3,170.9,206.7,172.6,202.9,172.8L202.9,172.8z
		 M580.2,212.2c0-3.7,1.5-7.3,4.1-10c2.6-2.6,6.2-4.1,9.9-4.2h35.6c-4.7-17.1-16.7-29.3-33.8-29.3c-25.9,0-40.1,20.6-40.1,45.6v0.5
		c0,24.7,17.9,45.8,43.3,45.8c10.3,0.2,20.3-3.4,28-10.2c3-2.5,6.9-3.8,10.8-3.5c3.9,0.3,7.6,2.2,10.1,5.2s3.8,6.9,3.5,10.8
		s-2.2,7.6-5.2,10.1l0,0c-13.6,10.7-30.4,16.4-47.7,16.3c-9.6,0.2-19.2-1.5-28.2-5.1c-9-3.5-17.2-8.8-24.1-15.5
		c-7-6.7-12.5-14.7-16.4-23.5s-5.9-18.4-6.1-28v-2.4c0-40.9,29.7-74.8,73-74.8c38.1,0,65.5,31.2,65.5,72.2c0,1.9-0.4,3.7-1.1,5.4
		c-0.7,1.7-1.7,3.3-3.1,4.6c-1.3,1.3-2.9,2.3-4.6,3.1c-1.7,0.7-3.5,1.1-5.4,1.1h-53.6c-3.7,0-7.3-1.5-10-4.1
		c-2.6-2.6-4.1-6.2-4.1-10L580.2,212.2z"/>
</g>
</svg>
