<?xml version="1.0" encoding="UTF-8"?>
<svg id="Camada_2" data-name="Camada 2" xmlns="http://www.w3.org/2000/svg" viewBox="0 0 123.61 98.8">
  <defs>
    <style>
      .cls-1 {
        fill: #000014;
      }
    </style>
  </defs>
  <g id="Camada_1-2" data-name="Camada 1">
    <path class="cls-1" d="M123.61,24.7c0-13.64-11.07-24.7-24.72-24.7H24.72C11.07,0,0,11.06,0,24.7v49.4c0,13.64,11.07,24.7,24.72,24.7h74.17c13.65,0,24.72-11.06,24.72-24.7s-11.07-24.7-24.72-24.7c13.65,0,24.72-11.06,24.72-24.7ZM89,79.05H24.72v-19.76h64.27c5.46,0,9.89,4.42,9.89,9.88s-4.43,9.88-9.89,9.88ZM89,39.52H24.72v-19.76h64.27c5.46,0,9.89,4.42,9.89,9.88s-4.43,9.88-9.89,9.88Z"/>
  </g>
</svg>