<?xml version="1.0" encoding="UTF-8"?>
<svg id="Camada_2" data-name="Camada 2" xmlns="http://www.w3.org/2000/svg" viewBox="0 0 411.92 97.92">
  <defs>
    <style>
      .cls-1 {
        fill: #fff;
      }
    </style>
  </defs>
  <g id="Camada_1-2" data-name="Camada 1">
    <path class="cls-1" d="M84.48,16.88C84.48,7.56,76.91,0,67.58,0H16.9C7.57,0,0,7.56,0,16.88v33.76c0,9.32,7.57,16.88,16.9,16.88h50.69c9.33,0,16.9-7.56,16.9-16.88s-7.57-16.88-16.9-16.88c9.33,0,16.9-7.56,16.9-16.88ZM60.82,54.02H16.9v-13.51h43.93c3.73,0,6.76,3.02,6.76,6.75s-3.03,6.75-6.76,6.75ZM60.82,27.01H16.9v-13.51h43.93c3.73,0,6.76,3.02,6.76,6.75s-3.03,6.75-6.76,6.75ZM138.54,13.5h-30.41c-9.33,0-16.9,7.56-16.9,16.88v20.26c0,9.32,7.57,16.88,16.9,16.88h30.41c9.33,0,16.9-7.56,16.9-16.88v-20.26c0-9.32-7.57-16.88-16.9-16.88ZM138.54,30.38v23.63h-30.41v-27.01h30.41v3.37h0ZM327.44,0C319.27,0,312.45,5.8,310.88,13.51h-7.1v13.51h6.76v23.63c0,9.32,7.57,16.88,16.9,16.88h13.52v-13.51h-13.52v-27.01h13.52v-13.51h-13.52V0ZM280.81,13.51h16.56V0C289.2,0,282.37,5.8,280.81,13.51ZM395.03,13.51v40.51h-30.41V13.51c-9.33,0-16.9,7.56-16.9,16.88v20.26c0,9.32,7.57,16.88,16.9,16.88h30.41v16.88h-30.41c-8.17,0-14.99,5.8-16.56,13.51h46.97c9.33,0,16.9-7.56,16.9-16.88V30.39c0-9.32-7.57-16.88-16.9-16.88ZM185.85,0C177.67,0,170.85,5.8,169.29,13.51h-7.1v13.51h6.76v23.63c0,9.32,7.57,16.88,16.9,16.88h13.52v-13.51h-13.52v-27.01h13.52v-13.51h-13.52V0ZM280.47,67.53h16.9V20.26h-16.9v47.27ZM223.02,16.88v-3.37h50.36c-1.56-7.7-8.39-13.51-16.56-13.51h-33.81c-9.33,0-16.9,7.56-16.9,16.88v33.76c0,9.32,7.57,16.88,16.9,16.88h33.81c8.17,0,14.99-5.8,16.56-13.51h-50.36V16.88Z"/>
  </g>
</svg>