<?xml version="1.0" encoding="UTF-8"?>
<svg id="Camada_1" data-name="Camada 1" xmlns="http://www.w3.org/2000/svg" xmlns:xlink="http://www.w3.org/1999/xlink" viewBox="0 0 600 600">
  <defs>
    <style>
      .cls-1 {
        fill: url(#Gradiente_sem_nome_612);
      }

      .cls-2 {
        fill: #003cf0;
      }

      .cls-3 {
        fill: #000014;
      }
    </style>
    <radialGradient id="Gradiente_sem_nome_612" data-name="Gradiente sem nome 612" cx="300" cy="300" fx="300" fy="300" r="290.5" gradientUnits="userSpaceOnUse">
      <stop offset="0" stop-color="#3d8bff"/>
      <stop offset="1" stop-color="#dbeaff" stop-opacity="0"/>
    </radialGradient>
  </defs>
  <path class="cls-1" d="M300,590.5c-39.22,0-77.27-7.68-113.08-22.83-34.59-14.63-65.66-35.58-92.34-62.26-26.69-26.69-47.63-57.76-62.26-92.34-15.15-35.82-22.83-73.86-22.83-113.08s7.68-77.26,22.83-113.08c14.63-34.59,35.57-65.66,62.26-92.34,26.69-26.69,57.76-47.63,92.34-62.26,35.82-15.15,73.86-22.83,113.08-22.83s77.26,7.68,113.08,22.83c34.59,14.63,65.66,35.58,92.34,62.26,26.69,26.69,47.63,57.76,62.26,92.34l.12.29h0c15.07,35.74,22.71,73.69,22.71,112.8s-7.68,77.27-22.83,113.08c-14.63,34.59-35.58,65.66-62.26,92.34-26.69,26.69-57.76,47.63-92.34,62.26-35.82,15.15-73.86,22.83-113.08,22.83ZM206.26,573.46c30.05,10.31,61.59,15.54,93.74,15.54,1.32,0,2.64-.02,3.95-.03l-.69-41.57c-1.08.02-2.17.03-3.26.03-27.49,0-54.45-4.46-80.15-13.27l-13.59,39.31ZM304.76,547.39l.69,41.57c33.46-.62,66.13-6.9,97.12-18.68l-14.87-38.84c-26.47,10.05-54.37,15.41-82.94,15.95ZM118.4,524.86c20.96,16.97,44.21,30.91,69.1,41.44,5.71,2.41,11.54,4.66,17.34,6.68l13.59-39.31c-4.95-1.73-9.91-3.64-14.74-5.69-21.28-8.99-41.15-20.9-59.08-35.41l-26.21,32.28ZM389.1,530.9l14.87,38.84c2.91-1.12,5.78-2.28,8.53-3.44h0c27.81-11.76,53.48-27.73,76.3-47.46l-27.26-31.4c-19.5,16.84-41.44,30.48-65.23,40.55-2.44,1.03-4.86,2.01-7.21,2.91ZM220.34,532.75c25.53,8.75,52.33,13.19,79.66,13.19,1.08,0,2.16,0,3.24-.03l-.67-41.57c-.85.01-1.71.02-2.57.02-22.67,0-44.9-3.67-66.07-10.92l-13.59,39.3ZM304.06,504.32l.67,41.57c28.4-.54,56.13-5.87,82.43-15.85l-14.85-38.84c-21.78,8.25-44.74,12.67-68.25,13.12ZM145.56,491.42c17.79,14.4,37.54,26.24,58.72,35.19,4.83,2.04,9.75,3.94,14.65,5.65l13.59-39.31-1.87-.65h.06c-3.47-1.25-6.91-2.6-10.24-4.01-17.53-7.42-33.91-17.23-48.69-29.17l-26.21,32.29ZM373.72,490.66l14.85,38.84c2.49-.96,4.9-1.93,7.17-2.89,23.63-9.99,45.44-23.55,64.83-40.3l-27.24-31.41c-16.08,13.88-34.18,25.11-53.78,33.41-1.86.79-3.82,1.58-5.83,2.36ZM52.42,449.22c12.03,19.94,26.57,38.49,43.22,55.14,6.86,6.86,14.13,13.43,21.61,19.55l26.21-32.28c-6.41-5.26-12.61-10.87-18.42-16.68-14.21-14.21-26.64-30.06-36.95-47.12l-35.67,21.38ZM462.67,486.45l27.25,31.4c4.62-4.04,9.19-8.29,13.58-12.64h0l.85-.85c18.9-18.9,35.03-40.18,47.94-63.26l-36.36-20.19c-11.04,19.71-24.83,37.9-40.98,54.05-3.95,3.95-8.08,7.81-12.29,11.5ZM234.41,492.02c21.82,7.46,44.76,11.12,68.14,10.82l-.69-41.58h-.42c-.48.01-.96.02-1.44.02-17.83,0-35.32-2.87-52.01-8.54l-13.58,39.28ZM303.38,461.24l.67,41.58c23.33-.45,46.11-4.83,67.74-13.02l-14.83-38.81c-17.07,6.43-35.09,9.88-53.58,10.26ZM220.95,486.88l.11.04c3.91,1.65,7.94,3.21,11.96,4.61l13.56-39.29c-17.28-6.05-33.3-14.98-47.64-26.56l-26.21,32.28c14.65,11.84,30.87,21.56,48.23,28.91ZM89.38,427.07c10.24,16.94,22.59,32.7,36.72,46.83,5.8,5.8,11.95,11.37,18.3,16.57l26.21-32.28c-5.28-4.33-10.36-8.93-15.11-13.68-11.71-11.71-21.95-24.76-30.45-38.8l-35.67,21.37ZM358.35,450.46l14.83,38.8c1.94-.75,3.88-1.54,5.79-2.34,19.46-8.23,37.41-19.39,53.38-33.16l-27.24-31.41c-13.99,12.06-29.72,21.51-46.76,28.11ZM434.46,453.9l27.23,31.41c4.18-3.66,8.29-7.5,12.21-11.42,16.06-16.06,29.76-34.13,40.73-53.72l-36.35-20.22c-9.12,16.27-20.48,31.25-33.77,44.54-3.17,3.18-6.55,6.34-10.05,9.4ZM248.48,451.33c16.53,5.61,33.86,8.46,51.52,8.46.61,0,1.22,0,1.83-.02l-.67-41.57h-.07c-.36,0-.73.01-1.09.01-12.99,0-25.75-2.08-37.93-6.2l-13.59,39.31ZM302.68,418.18l.67,41.56c18.29-.37,36.13-3.79,53.05-10.15l-14.86-38.85c-12.4,4.64-25.47,7.15-38.87,7.44ZM155.7,442.59l.85.85c4.74,4.74,9.78,9.3,15,13.58l26.2-32.27c-4.11-3.39-8.08-6.99-11.8-10.7-9.2-9.2-17.26-19.45-23.96-30.46l-35.66,21.35c8.22,13.59,18.09,26.25,29.36,37.65h0ZM406.24,421.36l27.23,31.41c3.42-2.99,6.77-6.12,9.98-9.33,13.19-13.19,24.47-28.06,33.53-44.21l-36.31-20.18c-7.19,12.75-16.14,24.53-26.61,34.99-2.48,2.48-5.11,4.94-7.81,7.31ZM199.86,424.53c14.21,11.47,30.08,20.32,47.19,26.31l13.59-39.31c-12.53-4.41-24.16-10.89-34.57-19.27l-26.21,32.28ZM342.95,410.21l14.86,38.86c16.9-6.55,32.49-15.92,46.33-27.85l-27.24-31.41c-10.16,8.72-21.58,15.58-33.95,20.4ZM16.32,355.54c3.79,19.46,9.64,38.62,17.39,56.96,5.15,12.18,11.19,24.11,17.95,35.45l35.67-21.38c-5.77-9.69-10.92-19.86-15.31-30.25-6.63-15.69-11.63-32.05-14.87-48.66l-40.83,7.88ZM516.67,419.6l36.36,20.19c4.89-8.85,9.35-18.03,13.27-27.3h0c8.98-21.22,15.38-43.49,19.04-66.18l-41.06-6.57c-3.12,19.38-8.6,38.41-16.28,56.57-3.34,7.9-7.15,15.74-11.32,23.29ZM73.26,395.43h0l.13.31c4.38,10.35,9.5,20.46,15.21,30.06l35.68-21.37c-4.74-7.96-8.97-16.33-12.59-24.87-5.45-12.9-9.57-26.37-12.26-40.05l-40.83,7.88c3.2,16.4,8.12,32.56,14.65,48.05ZM186.19,412.16l.82.82c3.74,3.74,7.67,7.3,11.69,10.6l26.21-32.28c-2.93-2.42-5.79-5.01-8.5-7.72-6.71-6.71-12.58-14.16-17.46-22.16l-35.67,21.38c6.43,10.58,14.14,20.45,22.91,29.35ZM378.02,388.82l27.24,31.4c2.67-2.34,5.27-4.78,7.74-7.24,10.37-10.37,19.24-22.03,26.36-34.66l-36.36-20.2c-5.25,9.28-11.78,17.85-19.4,25.47-1.77,1.77-3.64,3.53-5.57,5.23ZM479.01,398.66l36.36,20.23c4.13-7.48,7.91-15.27,11.24-23.14,7.64-18.07,13.08-36.98,16.18-56.22l-41.06-6.56c-2.58,15.95-7.1,31.63-13.43,46.59-2.72,6.44-5.85,12.86-9.29,19.11ZM262.57,410.61c12.02,4.06,24.61,6.11,37.44,6.11.35,0,.71,0,1.06-.01h.08s-.67-41.57-.67-41.57c-.16,0-.31,0-.47,0-8.15,0-16.16-1.3-23.84-3.88l-13.6,39.34ZM301.98,375.12l.67,41.56c13.21-.29,26.11-2.76,38.36-7.34l-14.87-38.89c-7.73,2.88-15.86,4.45-24.16,4.67ZM227,391.09c10.29,8.28,21.76,14.67,34.12,19.02l13.61-39.34c-7.77-2.78-14.99-6.81-21.49-11.98l-26.24,32.3ZM327.54,369.92l14.87,38.89c12.2-4.75,23.47-11.52,33.5-20.14l-27.27-31.44c-6.31,5.37-13.41,9.63-21.1,12.68ZM100.92,339.21c2.66,13.58,6.75,26.95,12.17,39.75,3.57,8.46,7.77,16.76,12.49,24.69l35.63-21.37c-9.38-15.77-15.93-32.91-19.46-50.95l-20.34,3.92h0l-20.49,3.97ZM459.36,387.73h.01l18.34,10.2c3.42-6.21,6.52-12.59,9.22-18.97,6.28-14.84,10.76-30.4,13.33-46.25l-41.08-6.54c-2.95,18.17-8.93,35.52-17.79,51.57l17.97,9.99ZM217.61,382.68c2.61,2.6,5.38,5.11,8.23,7.47l26.24-32.3c-6.38-5.29-11.8-11.54-16.14-18.58l-35.72,21.39c4.83,7.91,10.63,15.27,17.24,21.87l.15.15ZM349.76,356.26l27.26,31.43c1.89-1.66,3.74-3.39,5.5-5.15,7.52-7.52,13.97-15.98,19.16-25.15l-36.39-20.23c-4.09,7.17-9.32,13.6-15.54,19.11ZM143.22,331.05c3.5,17.89,9.99,34.86,19.27,50.46l35.69-21.36c-6.8-11.46-11.55-23.9-14.13-36.99l-40.83,7.88ZM435.38,374.4l4.71,2.62c8.78-15.92,14.7-33.1,17.62-51.08l-41.06-6.56c-2.16,13.17-6.5,25.76-12.91,37.42l31.65,17.6h0ZM276.66,369.87c7.51,2.52,15.36,3.79,23.35,3.79h.44s-.67-41.58-.67-41.58c-3.24-.02-6.45-.54-9.54-1.53l-13.58,39.32ZM301.27,332.04l.69,41.57c8.12-.21,16.07-1.75,23.65-4.57l-14.85-38.84c-3.03,1.08-6.22,1.7-9.49,1.83ZM254.19,357.63c6.35,5.06,13.42,9,21.03,11.73l13.59-39.3c-3.02-1.13-5.85-2.71-8.41-4.7l-26.2,32.27ZM312.16,329.67l14.85,38.84c7.52-2.97,14.46-7.14,20.65-12.41l-27.24-31.4c-2.5,2.07-5.28,3.74-8.27,4.96ZM185.52,322.88c2.55,12.91,7.24,25.18,13.94,36.49l35.72-21.4c-4.2-7.15-7.16-14.87-8.81-22.97l-40.85,7.89ZM237.23,338.48c4.25,6.91,9.57,13.03,15.81,18.21l26.19-32.27c-2.47-2.11-4.6-4.56-6.34-7.3l-35.66,21.36ZM366.03,335.84l36.4,20.24c6.32-11.5,10.6-23.93,12.74-36.94l-41.08-6.54c-1.38,8.15-4.09,15.96-8.06,23.24ZM321.55,323.73l27.24,31.4c6.08-5.39,11.19-11.67,15.2-18.69l-36.34-20.19c-1.65,2.79-3.7,5.31-6.09,7.49ZM14.43,255.17c-2.28,14.73-3.44,29.81-3.44,44.83,0,18.23,1.69,36.42,5.03,54.07l40.83-7.88c-2.85-15.11-4.29-30.65-4.29-46.19,0-12.83.99-25.7,2.94-38.27l-41.07-6.56ZM56.98,261.96c-1.93,12.46-2.92,25.26-2.92,38.03,0,15.47,1.43,30.91,4.27,45.91l40.83-7.88c-2.34-12.41-3.52-25.2-3.52-38.03,0-10.56.81-21.15,2.4-31.47l-41.06-6.56ZM544.5,338.27l41.06,6.57c2.29-14.72,3.45-29.8,3.45-44.83,0-18.23-1.69-36.42-5.03-54.07l-40.83,7.88c2.85,15.1,4.29,30.64,4.29,46.19v.5c-.03,12.68-1.02,25.38-2.94,37.77ZM501.96,331.47l41.06,6.56c1.93-12.47,2.92-25.26,2.92-38.03,0-15.47-1.43-30.92-4.27-45.91l-40.83,7.88c2.34,12.41,3.52,25.2,3.52,38.03,0,10.56-.81,21.15-2.4,31.47ZM99.52,268.76c-1.58,10.26-2.38,20.77-2.38,31.24,0,12.74,1.17,25.43,3.49,37.74l40.83-7.9c-1.82-9.8-2.75-19.84-2.75-29.85,0-8.22.63-16.52,1.88-24.69l-41.07-6.54ZM227.83,314.69c1.62,7.94,4.52,15.51,8.63,22.5l35.66-21.37c-1.62-2.83-2.78-5.86-3.46-9.02l-40.83,7.89ZM328.39,314.92l36.34,20.21c3.88-7.13,6.53-14.79,7.89-22.77l-41.07-6.56c-.59,3.19-1.65,6.25-3.16,9.12ZM459.42,324.7l41.07,6.54c1.58-10.26,2.38-20.76,2.38-31.23,0-12.73-1.17-25.43-3.49-37.74l-40.83,7.9c1.82,9.8,2.75,19.84,2.75,29.84,0,8.22-.63,16.52-1.88,24.7ZM290.71,329.12c2.93.94,5.96,1.43,9.04,1.45l-.42-26.29-8.61,24.84ZM300.82,304.27l.42,26.27c3.1-.13,6.11-.71,8.98-1.73l-9.4-24.54ZM142.08,275.54c-1.23,8.07-1.86,16.3-1.86,24.46,0,9.9.92,19.84,2.72,29.56l40.83-7.89c-1.31-7.11-1.98-14.4-1.98-21.67,0-5.94.45-11.96,1.35-17.9l-41.06-6.56ZM281.33,324.19c2.43,1.88,5.1,3.37,7.96,4.44l8.59-24.85-16.55,20.4ZM302.2,303.67l9.42,24.6c2.84-1.18,5.47-2.76,7.83-4.71l-17.25-19.89ZM416.87,317.9l41.06,6.56c1.23-8.07,1.86-16.3,1.86-24.46,0-9.89-.92-19.83-2.72-29.55l-40.83,7.88c1.31,7.11,1.98,14.4,1.98,21.67,0,5.95-.45,11.97-1.35,17.9ZM274.17,316.35c1.66,2.6,3.67,4.92,6,6.91l16.57-20.42-22.57,13.52ZM303.37,302.73l17.22,19.86c2.27-2.08,4.21-4.46,5.76-7.09l-22.98-12.76ZM184.61,282.34c-.88,5.82-1.33,11.76-1.33,17.66,0,7.18.66,14.38,1.95,21.39l40.85-7.89c-.81-4.45-1.22-8.99-1.22-13.5,0-3.71.28-7.44.82-11.1l-41.07-6.56ZM374.32,311.11l41.07,6.56c.88-5.88,1.32-11.79,1.32-17.67,0-7.18-.66-14.37-1.95-21.39l-40.85,7.88c.81,4.46,1.22,9,1.22,13.51,0,3.73-.28,7.46-.82,11.11ZM270.13,306.53c.66,2.99,1.76,5.86,3.28,8.53l22.6-13.53-25.88,5ZM304.06,301.4l23.02,12.79c1.43-2.71,2.43-5.61,2.98-8.63l-26.01-4.16ZM227.16,289.14c-.53,3.59-.8,7.24-.8,10.86,0,4.43.4,8.88,1.19,13.22l40.84-7.88c-.3-1.78-.45-3.58-.45-5.34,0-1.45.1-2.9.29-4.32l-41.07-6.54ZM331.79,304.31l41.07,6.56c.53-3.59.8-7.24.8-10.87,0-4.44-.4-8.89-1.19-13.22l-40.84,7.89c.3,1.78.45,3.57.45,5.34,0,1.41-.1,2.85-.29,4.31ZM269.69,295.91c-.18,1.35-.27,2.72-.27,4.08,0,1.65.14,3.35.43,5.05l25.83-4.99-25.99-4.15ZM304.34,299.93l25.97,4.14c.18-1.35.27-2.72.27-4.08,0-1.65-.14-3.35-.43-5.05l-25.81,4.99ZM269.94,294.43l25.97,4.14-22.99-12.77c-1.43,2.71-2.43,5.61-2.98,8.63ZM326.61,284.94l-22.58,13.54,25.86-5c-.65-2.99-1.76-5.86-3.28-8.53ZM273.65,284.51l23.02,12.79-17.25-19.88c-2.28,2.09-4.21,4.46-5.76,7.09ZM319.84,276.75l-16.57,20.41,22.57-13.5c-1.66-2.6-3.67-4.92-6-6.91ZM280.56,276.43l17.2,19.81-9.36-24.52c-2.84,1.18-5.47,2.76-7.83,4.71ZM310.71,271.36l-8.6,24.85,16.57-20.4c-2.43-1.88-5.1-3.37-7.96-4.44ZM289.79,271.18l.13.34,9.27,24.27-.42-26.34c-3.1.13-6.11.71-8.98,1.73ZM300.26,269.43l.42,26.28,8.58-24.84c-2.92-.93-5.95-1.41-9-1.44ZM227.39,287.65l41.07,6.56c.59-3.19,1.65-6.25,3.16-9.12l-36.33-20.2c-3.88,7.13-6.53,14.78-7.89,22.76ZM327.88,284.17c1.62,2.85,2.78,5.88,3.46,9.02l40.83-7.88c-1.62-7.94-4.52-15.51-8.63-22.5l-35.66,21.37ZM184.84,280.86l41.07,6.56c1.38-8.16,4.09-15.98,8.06-23.25l-36.39-20.23c-6.32,11.5-10.6,23.92-12.74,36.93ZM364.83,262.04c4.2,7.14,7.17,14.87,8.81,22.98l40.84-7.9c-2.55-12.91-7.24-25.18-13.94-36.49l-35.72,21.4ZM236.02,263.57l36.33,20.21c1.64-2.79,3.69-5.31,6.1-7.51l-27.23-31.39c-6.08,5.38-11.19,11.67-15.2,18.69ZM320.78,275.58c2.47,2.11,4.6,4.56,6.34,7.31l35.66-21.37c-4.25-6.91-9.57-13.03-15.81-18.21l-26.2,32.27ZM142.3,274.06l41.06,6.56c2.16-13.17,6.5-25.75,12.9-37.41l-36.36-20.2c-8.77,15.9-14.69,33.07-17.61,51.05ZM401.82,239.85c6.79,11.45,11.55,23.89,14.14,36.99l40.82-7.88c-3.5-17.89-9.99-34.86-19.27-50.46l-35.69,21.36ZM252.34,243.89l27.24,31.4c2.5-2.07,5.28-3.74,8.27-4.97l-14.88-38.84c-7.52,2.98-14.46,7.15-20.63,12.4ZM311.2,269.95c3.02,1.13,5.85,2.71,8.41,4.7l26.21-32.27c-6.37-5.07-13.44-9.01-21.05-11.74l-13.57,39.31ZM99.76,267.28l41.07,6.54c2.95-18.17,8.93-35.51,17.78-51.55l-36.3-20.21c-3.42,6.19-6.52,12.57-9.22,18.97-6.28,14.84-10.76,30.4-13.33,46.25ZM274.39,230.95l14.85,38.84c3.04-1.08,6.23-1.7,9.49-1.83l-.69-41.34h0s0-.24,0-.24c-8.12.21-16.07,1.75-23.65,4.56ZM300.24,267.92c3.22.02,6.42.54,9.51,1.52l13.6-39.31c-7.51-2.52-15.36-3.79-23.35-3.79h-.44s.67,41.58.67,41.58ZM438.8,217.72c9.38,15.77,15.93,32.91,19.46,50.95l40.83-7.88c-2.66-13.57-6.75-26.95-12.17-39.75-3.58-8.46-7.78-16.76-12.49-24.68l-35.63,21.36ZM57.21,260.49l41.06,6.56c2.58-15.95,7.1-31.62,13.43-46.59,2.72-6.43,5.84-12.86,9.29-19.12l-36.36-20.22c-4.14,7.49-7.92,15.28-11.25,23.15-7.64,18.06-13.08,36.97-16.18,56.22ZM198.31,242.62l36.4,20.23c4.09-7.17,9.32-13.6,15.53-19.11l-27.27-31.43c-1.89,1.66-3.74,3.39-5.5,5.15-7.52,7.52-13.97,15.98-19.16,25.15ZM347.92,242.15c6.39,5.3,11.81,11.55,16.14,18.58l35.72-21.4c-4.83-7.91-10.63-15.27-17.24-21.87-2.65-2.65-5.47-5.21-8.38-7.61l-26.24,32.3ZM475.72,195.58c4.74,7.97,8.98,16.33,12.59,24.87,5.45,12.9,9.57,26.37,12.25,40.05l40.83-7.88c-3.22-16.52-8.19-32.78-14.78-48.35-4.38-10.35-9.49-20.46-15.21-30.06l-35.68,21.37ZM14.67,253.69l41.06,6.56c3.12-19.38,8.6-38.4,16.28-56.56,3.34-7.91,7.15-15.74,11.32-23.29l-36.35-20.19c-4.85,8.77-9.32,17.95-13.27,27.3h0c-8.98,21.22-15.38,43.49-19.04,66.18ZM512.68,173.44c5.77,9.69,10.92,19.86,15.31,30.25,6.63,15.68,11.63,32.04,14.87,48.65l40.83-7.88c-3.79-19.46-9.64-38.62-17.39-56.96-5.17-12.21-11.2-24.13-17.94-35.43l-35.67,21.37ZM224.09,211.32l27.27,31.44c6.32-5.38,13.41-9.64,21.08-12.67l-14.86-38.9c-12.2,4.75-23.46,11.52-33.49,20.13ZM160.65,221.67l36.35,20.22c5.26-9.29,11.79-17.86,19.41-25.48,1.79-1.78,3.67-3.54,5.58-5.23l-27.24-31.41c-2.69,2.36-5.29,4.79-7.74,7.24-10.37,10.37-19.24,22.03-26.36,34.66ZM325.26,229.22c7.79,2.79,15.02,6.82,21.51,12l26.24-32.31c-10.29-8.28-21.77-14.68-34.14-19.03l-13.61,39.34ZM375.1,208.69c2.94,2.43,5.79,5.02,8.49,7.72,6.71,6.71,12.58,14.16,17.46,22.16l35.67-21.38c-6.63-10.91-14.62-21.06-23.73-30.18-3.7-3.7-7.63-7.27-11.68-10.6l-26.21,32.28ZM258.97,190.67l14.89,38.88c7.74-2.88,15.86-4.45,24.15-4.66l-.67-41.56c-13.22.29-26.12,2.76-38.37,7.35ZM300.01,224.85c8.15,0,16.16,1.3,23.84,3.88l13.6-39.34c-12.03-4.06-24.62-6.11-37.44-6.11-.38,0-.75,0-1.13.01h0l.67,41.56h.15s0,0,0,0c.11,0,.21,0,.31,0ZM123.03,200.76l36.32,20.19c7.19-12.76,16.15-24.53,26.61-34.99,2.48-2.48,5.1-4.94,7.81-7.31l-27.24-31.42c-3.44,3.01-6.79,6.15-9.98,9.33-13.19,13.19-24.47,28.06-33.53,44.21ZM402.26,175.25c4.12,3.39,8.09,6.99,11.8,10.7,9.2,9.2,17.26,19.45,23.96,30.46l35.65-21.35c-8.43-13.93-18.59-26.88-30.21-38.51h0c-4.72-4.72-9.76-9.28-15.01-13.59l-26.19,32.28ZM195.88,178.78l27.24,31.41c10.16-8.73,21.57-15.59,33.93-20.4l-14.86-38.86c-16.9,6.55-32.47,15.92-46.31,27.84ZM339.35,188.47c12.53,4.41,24.16,10.89,34.59,19.28l26.21-32.28c-14.2-11.47-30.07-20.32-47.21-26.31l-13.59,39.31ZM85.36,179.81l36.36,20.22c9.13-16.27,20.49-31.25,33.77-44.54,3.17-3.17,6.55-6.34,10.06-9.4l-27.24-31.42c-4.23,3.7-8.34,7.54-12.22,11.43-16.06,16.06-29.76,34.13-40.73,53.72ZM429.39,141.81c5.28,4.33,10.36,8.93,15.12,13.69,11.7,11.7,21.94,24.75,30.45,38.81l35.68-21.37c-10.24-16.94-22.59-32.7-36.72-46.83-5.81-5.81-11.97-11.39-18.31-16.58l-26.21,32.28ZM243.59,150.42l14.85,38.85c12.4-4.65,25.48-7.15,38.89-7.45l-.67-41.56c-18.3.37-36.15,3.79-53.07,10.16ZM300,181.78c13,0,25.76,2.08,37.93,6.2l13.59-39.31c-16.54-5.61-33.87-8.46-51.52-8.46-.61,0-1.22,0-1.82.02l.67,41.57c.38,0,.77-.01,1.15-.01ZM47.71,158.9l36.35,20.19c11.04-19.71,24.82-37.89,40.98-54.05,3.9-3.91,8.03-7.77,12.29-11.5l-27.24-31.41c-4.87,4.26-9.68,8.75-14.3,13.36h0s-.15.15-.15.15c-18.89,18.88-35.02,40.16-47.94,63.25ZM167.66,146.24l27.24,31.42c14-12.06,29.73-21.51,46.77-28.11l-14.84-38.8c-1.91.73-3.85,1.52-5.78,2.34-19.46,8.23-37.42,19.39-53.38,33.16ZM353.43,147.74c17.3,6.06,33.33,14.99,47.66,26.56l26.19-32.28c-14.67-11.85-30.92-21.59-48.32-28.95-3.91-1.65-7.93-3.2-11.96-4.62l-13.58,39.28ZM456.54,108.36c6.41,5.25,12.6,10.86,18.42,16.68,14.24,14.24,26.67,30.09,36.95,47.12l35.67-21.37c-12.03-19.94-26.57-38.49-43.22-55.14-6.85-6.85-14.12-13.43-21.61-19.57l-26.21,32.28ZM228.21,110.21l14.84,38.81c17.07-6.43,35.09-9.88,53.57-10.26l-.67-41.58c-23.34.45-46.13,4.83-67.75,13.02ZM300,138.71c17.83,0,35.33,2.87,52.01,8.54l13.58-39.28c-21.82-7.46-44.8-11.11-68.14-10.82l.69,41.58h.4c.48-.01.97-.02,1.45-.02ZM139.44,113.69l27.23,31.41c16.09-13.88,34.18-25.11,53.78-33.41,1.9-.8,3.86-1.59,5.83-2.35l-14.86-38.84c-2.62,1.01-4.97,1.96-7.15,2.89-23.63,9.99-45.44,23.55-64.83,40.3ZM367.5,107.05c4.1,1.44,8.15,3,12.05,4.65,17.53,7.42,33.9,17.23,48.68,29.17l26.21-32.3c-17.79-14.39-37.54-26.23-58.7-35.18-4.71-1.99-9.63-3.89-14.65-5.65l-13.59,39.31ZM111.22,81.15l27.24,31.41c19.49-16.84,41.43-30.48,65.23-40.55,2.35-.99,4.77-1.97,7.2-2.91l-14.85-38.85c-2.97,1.14-5.83,2.3-8.53,3.45l-.7.29h0c-27.56,11.74-52.99,27.6-75.6,47.15ZM212.82,69.97l14.86,38.84c21.79-8.25,44.74-12.67,68.26-13.12l-.67-41.57c-28.42.53-56.15,5.87-82.45,15.85ZM381.58,66.33c4.92,1.72,9.88,3.63,14.74,5.68,21.28,8.99,41.15,20.9,59.06,35.4l26.21-32.28c-20.94-16.95-44.18-30.89-69.09-41.43-5.7-2.41-11.52-4.65-17.33-6.68l-13.59,39.31ZM300.01,95.64c22.68,0,44.9,3.67,66.08,10.92l13.59-39.31c-25.53-8.75-52.33-13.19-79.67-13.19-1.08,0-2.16.01-3.24.03l.67,41.57c.86-.01,1.71-.02,2.57-.02ZM197.44,29.72l14.85,38.85c26.48-10.05,54.38-15.41,82.96-15.95l-.69-41.57c-33.46.61-66.13,6.89-97.12,18.67ZM300,52.57c27.51,0,54.48,4.46,80.16,13.27l13.59-39.31c-30.06-10.31-61.6-15.54-93.75-15.54-1.32,0-2.64.02-3.95.03l.69,41.57c1.09-.02,2.17-.03,3.26-.03Z"/>
  <path class="cls-3" d="M194.1,196.07c11.63,0,21.06-9.43,21.06-21.06s-9.43-21.06-21.06-21.06-21.06,9.43-21.06,21.06,9.43,21.06,21.06,21.06Z"/>
  <path class="cls-2" d="M347.97,167.79c3.12,0,5.64-2.53,5.64-5.64s-2.53-5.64-5.64-5.64-5.64,2.53-5.64,5.64,2.52,5.64,5.64,5.64Z"/>
  <path class="cls-2" d="M219.09,358.75h6.9c3.81,0,6.9,3.09,6.9,6.9h0c0,3.81-3.09,6.9-6.9,6.9h-6.9v-13.8h0Z"/>
  <rect class="cls-2" x="406.4" y="287.75" width="21.63" height="21.63"/>
</svg>