<?xml version="1.0" encoding="UTF-8"?>
<svg id="Camada_1" data-name="Camada 1" xmlns="http://www.w3.org/2000/svg" viewBox="0 0 600 600">
  <defs>
    <style>
      .cls-1 {
        fill: none;
        stroke: #00248f;
        stroke-miterlimit: 10;
        stroke-width: 4px;
      }
    </style>
  </defs>
  <line class="cls-1" x1="297.38" y1="589.99" x2="298.34" y2="484.22"/>
  <line class="cls-1" x1="207.9" y1="574.98" x2="241.49" y2="474.69"/>
  <line class="cls-1" x1="127.43" y1="533.06" x2="190.37" y2="448.06"/>
  <line class="cls-1" x1="63.86" y1="468.33" x2="149.98" y2="406.94"/>
  <line class="cls-1" x1="23.4" y1="387.12" x2="124.28" y2="355.35"/>
  <line class="cls-1" x1="10.01" y1="297.38" x2="115.78" y2="298.34"/>
  <line class="cls-1" x1="25.02" y1="207.9" x2="125.31" y2="241.49"/>
  <line class="cls-1" x1="66.93" y1="127.43" x2="151.94" y2="190.37"/>
  <line class="cls-1" x1="131.67" y1="63.86" x2="193.06" y2="149.98"/>
  <line class="cls-1" x1="212.88" y1="23.4" x2="244.65" y2="124.28"/>
  <line class="cls-1" x1="302.62" y1="10.01" x2="301.66" y2="115.78"/>
  <line class="cls-1" x1="392.1" y1="25.02" x2="358.51" y2="125.31"/>
  <line class="cls-1" x1="472.57" y1="66.93" x2="409.63" y2="151.94"/>
  <line class="cls-1" x1="536.14" y1="131.67" x2="450.02" y2="193.06"/>
  <line class="cls-1" x1="576.6" y1="212.88" x2="475.72" y2="244.65"/>
  <line class="cls-1" x1="589.99" y1="302.62" x2="484.22" y2="301.66"/>
  <line class="cls-1" x1="574.98" y1="392.1" x2="474.69" y2="358.51"/>
  <line class="cls-1" x1="533.07" y1="472.57" x2="448.06" y2="409.63"/>
  <line class="cls-1" x1="468.33" y1="536.14" x2="406.94" y2="450.02"/>
  <line class="cls-1" x1="387.12" y1="576.6" x2="355.35" y2="475.72"/>
</svg>