<?xml version="1.0" encoding="UTF-8"?>
<svg id="Camada_1" data-name="Camada 1" xmlns="http://www.w3.org/2000/svg" xmlns:xlink="http://www.w3.org/1999/xlink" viewBox="0 0 600 600">
  <defs>
    <style>
      .cls-1 {
        fill: url(#Gradiente_sem_nome_542);
      }

      .cls-2 {
        fill: url(#Gradiente_sem_nome_531);
      }

      .cls-3 {
        fill: url(#Gradiente_sem_nome_520);
      }

      .cls-4 {
        fill: #04040a;
      }
    </style>
    <radialGradient id="Gradiente_sem_nome_542" data-name="Gradiente sem nome 542" cx="300" cy="300" fx="300" fy="300" r="290" gradientUnits="userSpaceOnUse">
      <stop offset=".64" stop-color="#00248f"/>
      <stop offset=".81" stop-color="#000014"/>
    </radialGradient>
    <radialGradient id="Gradiente_sem_nome_531" data-name="Gradiente sem nome 531" cx="300" cy="300" fx="300" fy="300" r="196.15" gradientUnits="userSpaceOnUse">
      <stop offset=".49" stop-color="#00248f"/>
      <stop offset=".81" stop-color="#000014"/>
    </radialGradient>
    <radialGradient id="Gradiente_sem_nome_520" data-name="Gradiente sem nome 520" cx="300" cy="300" fx="300" fy="300" r="106.2" gradientUnits="userSpaceOnUse">
      <stop offset=".26" stop-color="#003cf0"/>
      <stop offset=".8" stop-color="#000014"/>
    </radialGradient>
  </defs>
  <path class="cls-1" d="M300,10h0c-119.62,0-222.93,73.41-267.12,177.4-14.73,34.66-22.88,72.72-22.88,112.6,0,159.5,130.5,290,290,290h0c119.62,0,222.93-73.4,267.12-177.39,14.73-34.66,22.88-72.73,22.88-112.6,0-159.5-130.5-290-290-290Z"/>
  <path class="cls-4" d="M438.53,438.53c-35.55,35.55-84.59,57.62-138.53,57.62h0c-107.88,0-196.15-88.27-196.15-196.15,0-53.94,22.07-102.98,57.62-138.53,35.55-35.55,84.59-57.62,138.53-57.62h0c107.88,0,196.15,88.27,196.15,196.15,0,53.94-22.07,102.98-57.62,138.53Z"/>
  <path class="cls-4" d="M406.09,300c0,29.17-11.93,55.69-31.16,74.92-19.23,19.23-45.75,31.16-74.93,31.16-58.35,0-106.08-47.74-106.08-106.09,0-29.17,11.93-55.69,31.16-74.92,19.23-19.23,45.75-31.16,74.92-31.16s55.7,11.94,74.93,31.16c19.23,19.23,31.16,45.75,31.16,74.92Z"/>
  <path class="cls-2" d="M300,103.85h0c-53.94,0-102.98,22.07-138.53,57.62-35.55,35.55-57.62,84.59-57.62,138.53,0,107.88,88.27,196.15,196.15,196.15h0c53.94,0,102.98-22.07,138.53-57.62,35.55-35.55,57.62-84.59,57.62-138.53,0-107.88-88.27-196.15-196.15-196.15ZM374.93,374.92c-19.23,19.23-45.75,31.16-74.93,31.16-58.35,0-106.08-47.74-106.08-106.09,0-29.17,11.93-55.69,31.16-74.92,19.23-19.23,45.75-31.16,74.92-31.16s55.7,11.94,74.93,31.16c19.23,19.23,31.16,45.75,31.16,74.92s-11.93,55.69-31.16,74.92Z"/>
  <path class="cls-3" d="M300,193.81c-29.2,0-55.75,11.95-75,31.2-19.25,19.24-31.2,45.79-31.2,75,0,58.41,47.79,106.19,106.19,106.19,29.21,0,55.75-11.95,75-31.2,19.25-19.24,31.2-45.79,31.2-75,0-58.41-47.79-106.19-106.19-106.19Z"/>
</svg>