<svg width="14" height="14" viewBox="0 0 14 14" fill="none" xmlns="http://www.w3.org/2000/svg">
<g clip-path="url(#clip0_2011_13067)">
<path d="M3.57833 6.36525L0.876985 10.9961C0.488102 11.6628 0.968971 12.5 1.74077 12.5H9.71307M4.605 4.60524L6.13595 1.98075C6.52183 1.31924 7.47763 1.31924 7.86351 1.98075L13.1224 10.9961C13.4732 11.5975 13.1163 12.3376 12.4766 12.4768" stroke="black" stroke-linecap="round" stroke-linejoin="round"/>
<path d="M7 5V7" stroke="black" stroke-linecap="round" stroke-linejoin="round"/>
<path d="M7 10.5C6.86193 10.5 6.75 10.3881 6.75 10.25C6.75 10.1119 6.86193 10 7 10" stroke="black" stroke-linecap="round" stroke-linejoin="round"/>
<path d="M7 10.5C7.13807 10.5 7.25 10.3881 7.25 10.25C7.25 10.1119 7.13807 10 7 10" stroke="black" stroke-linecap="round" stroke-linejoin="round"/>
<path d="M0.502441 0.502441L13.4975 13.4975" stroke="black" stroke-linecap="round" stroke-linejoin="round"/>
</g>
<defs>
<clipPath id="clip0_2011_13067">
<rect width="14" height="14" fill="white"/>
</clipPath>
</defs>
</svg>
